HIERARCHY
ROOT Hips
{
 OFFSET 0.000000 0.000000 0.000000
 CHANNELS 6 Xposition Yposition Zposition Yrotation Xrotation Zrotation
 JOINT Chest
 {
  OFFSET 0.000000 12.953391 -0.028419
  CHANNELS 3 Yrotation Xrotation Zrotation
  JOINT Chest2
  {
   OFFSET 0.000000 10.280254 0.051622
   CHANNELS 3 Yrotation Xrotation Zrotation
   JOINT Chest3
   {
    OFFSET 0.000000 9.287180 0.000000
    CHANNELS 3 Yrotation Xrotation Zrotation
    JOINT Chest4
    {
     OFFSET 0.000000 9.287180 0.000000
     CHANNELS 3 Yrotation Xrotation Zrotation
     JOINT Neck
     {
      OFFSET 0.000000 13.296264 0.000000
      CHANNELS 3 Yrotation Xrotation Zrotation
      JOINT Head
      {
       OFFSET 0.000000 8.959264 0.099003
       CHANNELS 3 Yrotation Xrotation Zrotation
       End Site
       {
        OFFSET 0.000000 17.121337 0.039303
       }
      }
     }
     JOINT RightCollar
     {
      OFFSET -3.193511 7.451388 0.000000
      CHANNELS 3 Yrotation Xrotation Zrotation
      JOINT RightShoulder
      {
       OFFSET -15.792092 0.000000 0.000000
       CHANNELS 3 Yrotation Xrotation Zrotation
       JOINT RightElbow
       {
        OFFSET -31.151839 0.000000 0.000000
        CHANNELS 3 Yrotation Xrotation Zrotation
        JOINT RightWrist
        {
         OFFSET -25.536298 0.000000 0.002321
         CHANNELS 3 Yrotation Xrotation Zrotation
         End Site
         {
          OFFSET -19.133213 0.000000 0.000000
         }
        }
       }
      }
     }
     JOINT LeftCollar
     {
      OFFSET 3.193511 7.451388 0.000000
      CHANNELS 3 Yrotation Xrotation Zrotation
      JOINT LeftShoulder
      {
       OFFSET 15.792092 0.000000 0.000000
       CHANNELS 3 Yrotation Xrotation Zrotation
       JOINT LeftElbow
       {
        OFFSET 31.151839 0.000000 0.000000
        CHANNELS 3 Yrotation Xrotation Zrotation
        JOINT LeftWrist
        {
         OFFSET 25.536298 0.000000 0.002321
         CHANNELS 3 Yrotation Xrotation Zrotation
         End Site
         {
          OFFSET 19.133213 0.000000 0.000000
         }
        }
       }
      }
     }
    }
   }
  }
 }
 JOINT RightHip
 {
  OFFSET -10.745749 0.139252 0.014209
  CHANNELS 3 Yrotation Xrotation Zrotation
  JOINT RightKnee
  {
   OFFSET 0.000000 -43.743899 -0.006071
   CHANNELS 3 Yrotation Xrotation Zrotation
   JOINT RightAnkle
   {
    OFFSET 0.000000 -43.214199 0.089931
    CHANNELS 3 Yrotation Xrotation Zrotation
    JOINT RightToe
    {
     OFFSET 0.000000 -9.699830 19.151588
     CHANNELS 3 Yrotation Xrotation Zrotation
     End Site
     {
      OFFSET 0.000000 -1.292898 4.893873
     }
    }
   }
  }
 }
 JOINT LeftHip
 {
  OFFSET 10.745749 0.139252 0.014209
  CHANNELS 3 Yrotation Xrotation Zrotation
  JOINT LeftKnee
  {
   OFFSET 0.000000 -43.743899 -0.006071
   CHANNELS 3 Yrotation Xrotation Zrotation
   JOINT LeftAnkle
   {
    OFFSET 0.000000 -43.214199 0.089931
    CHANNELS 3 Yrotation Xrotation Zrotation
    JOINT LeftToe
    {
     OFFSET 0.000000 -9.699830 19.151588
     CHANNELS 3 Yrotation Xrotation Zrotation
     End Site
     {
      OFFSET 0.000000 -1.292898 4.893873
     }
    }
   }
  }
 }
}
MOTION
Frames: 7
Frame Time: 0.016667
22.635644 100.565744 323.357878 77.961890 -10.549979 6.717243 -2.265352 8.857969 2.505721 -1.051681 3.924627 1.153583 -1.051681 3.924627 1.153583 -0.795874 2.941509 0.871615 -10.913713 24.587358 5.291792 -20.801004 11.061765 12.010671 7.950957 2.775337 6.075479 2.490908 -24.892442 68.492542 -3.019012 -0.534551 -12.375513 -1.273648 25.387342 -41.345415 -2.865693 0.967117 -6.574312 -10.039855 -9.964532 -82.385661 -5.155515 2.179261 0.219133 16.898426 10.819654 13.284780 -11.505003 14.779238 -2.384722 -2.264635 -1.986004 -0.533757 -20.490208 -0.827000 -1.306961 -0.000000 0.000000 -0.000000 21.671467 -3.166695 4.308149 -1.670021 17.404462 -1.039539 -2.521358 0.743756 -4.564649 0.000000 0.000000 0.000000
22.512221 100.523019 323.083411 78.063004 -10.419658 6.715478 -2.270819 8.848555 2.507590 -1.054094 3.920404 1.154477 -1.054094 3.920404 1.154477 -0.797681 2.938335 0.872294 -10.915996 24.599327 5.290706 -20.803427 11.083917 12.007262 7.832779 2.771894 6.161612 2.530159 -24.592974 68.285037 -2.536798 -0.650954 -12.395971 -1.189099 25.211408 -41.414319 -2.984959 0.979610 -6.703244 -10.046105 -10.046202 -82.077999 -4.961199 2.187897 0.193421 16.952983 10.880092 13.248728 -11.293628 14.603060 -2.404125 -2.827726 -2.070678 -0.481768 -20.185554 -0.842232 -1.382593 0.000000 -0.000000 0.000000 21.563913 -3.453815 4.100053 -1.425752 18.094623 -0.376209 -2.787410 0.308045 -4.933288 -0.000000 0.000000 0.000000
22.388798 100.480295 322.808943 78.164072 -10.289334 6.713948 -2.276279 8.839137 2.509461 -1.056506 3.916180 1.155371 -1.056506 3.916180 1.155372 -0.799488 2.935161 0.872974 -10.918266 24.611297 5.289637 -20.805814 11.106074 12.003864 7.714802 2.768538 6.248022 2.567385 -24.293702 68.077929 -2.054844 -0.768494 -12.417246 -1.104902 25.035324 -41.483505 -3.104528 0.992010 -6.831932 -10.052427 -10.127741 -81.770282 -4.766926 2.197061 0.167618 17.007439 10.940813 13.212956 -11.082646 14.426941 -2.425001 -3.391087 -2.154087 -0.429866 -19.880702 -0.857493 -1.457458 -0.000000 0.000000 0.000000 21.457265 -3.741160 3.892274 -1.172291 18.782109 0.292813 -3.050789 -0.130199 -5.298793 -0.000000 -0.000000 0.000000
22.273119 100.439677 322.538586 78.284427 -10.171606 6.690445 -2.284877 8.822321 2.507006 -1.060188 3.908672 1.154376 -1.060188 3.908672 1.154376 -0.802229 2.929525 0.872239 -10.919193 24.641540 5.296016 -20.805323 11.163049 12.010478 7.590611 2.768052 6.332306 2.508267 -23.955065 67.994146 -1.415539 -0.887027 -12.488975 -1.002029 24.917802 -41.640082 -3.211725 1.015241 -6.942178 -10.052947 -10.197585 -81.483555 -4.575665 2.175183 0.142915 17.059072 10.988200 13.171003 -10.917068 14.262624 -2.449368 -3.895609 -2.233410 -0.377712 -19.607833 -0.866423 -1.515985 0.000000 0.000000 0.000000 21.371289 -3.995201 3.754121 -0.754335 19.431335 0.937845 -3.008383 -0.485629 -5.399718 -0.000000 -0.000000 0.000000
22.168161 100.403329 322.274481 78.425526 -10.071128 6.636843 -2.294997 8.795167 2.499192 -1.064394 3.896588 1.150993 -1.064394 3.896589 1.150992 -0.805339 2.920461 0.869710 -10.916239 24.701819 5.315280 -20.797258 11.277112 12.034244 7.457324 2.770718 6.412891 2.311229 -23.554754 68.070636 -0.531000 -1.001553 -12.629401 -0.879072 24.903415 -41.947854 -3.303335 1.053042 -7.022944 -10.048206 -10.252415 -81.228573 -4.379333 2.096040 0.116204 17.105888 11.014821 13.112585 -10.819607 14.111419 -2.482164 -4.309613 -2.305887 -0.325334 -19.377233 -0.865141 -1.550898 0.000000 -0.000000 0.000000 21.303366 -4.197709 3.709695 -0.048511 20.022233 1.566003 -2.494241 -0.722058 -5.110057 0.000000 0.000000 0.000000
22.070947 100.369086 322.014486 78.585795 -9.983040 6.561306 -2.308315 8.760656 2.486993 -1.069903 3.881240 1.145694 -1.069903 3.881240 1.145695 -0.809410 2.908948 0.865750 -10.911683 24.780346 5.342127 -20.785838 11.425961 12.068109 7.317712 2.776530 6.491189 2.023035 -23.113628 68.266612 0.511918 -1.113889 -12.818426 -0.734298 24.950395 -42.340479 -3.382247 1.101938 -7.085474 -10.037748 -10.295952 -80.994659 -4.185804 1.985586 0.090476 17.150195 11.028069 13.047922 -10.767440 13.971997 -2.517565 -4.664798 -2.374486 -0.272771 -19.178763 -0.857660 -1.569695 0.000000 0.000000 0.000000 21.255185 -4.366728 3.734393 0.821524 20.568369 2.176829 -1.672407 -0.885599 -4.571446 0.000000 -0.000000 0.000000
21.980282 100.332569 321.756283 78.779955 -9.905552 6.466121 -2.332943 8.720312 2.469088 -1.080288 3.863265 1.138052 -1.080288 3.863265 1.138052 -0.817116 2.895461 0.860056 -10.911418 24.860085 5.367851 -20.781624 11.577592 12.100713 7.173821 2.787947 6.569227 1.683805 -22.656427 68.587478 1.609159 -1.232581 -13.048151 -0.548077 24.987512 -42.710122 -3.444845 1.162140 -7.145069 -10.014212 -10.327521 -80.770770 -4.022019 1.890266 0.076349 17.195691 11.036375 13.001267 -10.737272 13.852065 -2.541246 -4.997143 -2.445006 -0.219638 -19.014007 -0.849473 -1.579132 0.000000 0.000000 0.000000 21.252601 -4.523079 3.823899 1.638640 21.085619 2.729437 -0.735748 -1.007640 -3.927527 0.000000 -0.000000 0.000000
